<svg xmlns="http://www.w3.org/2000/svg" viewBox="0 0 610.43 67.83"><defs><style>.cls-1{fill:#8924ff;}</style></defs><g id="Camada_2" data-name="Camada 2"><g id="Camada_1-2" data-name="Camada 1"><path class="cls-1" d="M13.23,33.52V66.65H0V36.16C0,21.37,7.45,14,22.25,14c6.66,0,11.76,1.47,15.48,4.41,3.73-2.85,8.82-4.22,15.49-4.22,14.8,0,22.15,7.35,22,22.15V66.84H68.51C64.19,66.55,62,64.49,62,60.37V33.71c-.3-5.39-3.24-8-9-8s-8.72,2.64-8.82,8V66.65H31.07V33.52c-.3-5.39-3.24-8-9-8S13.33,28.13,13.23,33.52Z"/><path class="cls-1" d="M96.24,28.32h-13c1.57-9.6,8.33-14.3,20.29-14.3,14.31,0,21.56,4.7,21.85,14.3V46c0,14.3-8.62,20.68-22.64,21.66-12.44,1-21.07-4.81-21.07-16.27.3-12.45,9.31-15.78,22.45-17.06,5.58-.68,8.42-2.35,8.42-5.19-.29-2.94-3-4.41-8.42-4.41C99.47,24.7,96.92,25.87,96.24,28.32ZM112.7,45.38v-4.8a56.57,56.57,0,0,1-10.39,3.13c-5.19,1-7.84,3.43-7.84,7.25C94.77,55.08,96.92,57,101,57,108.29,57,112.7,52.73,112.7,45.38Z"/><path class="cls-1" d="M175.22,46c0,8.91-2.25,14.79-6.86,17.64a30.21,30.21,0,0,1-15.28,4,26.18,26.18,0,0,1-14.71-4.42c-4.5-2.84-6.76-8.52-6.76-17.24V14.8h13V48.61c0,5.78,2.94,8.63,8.82,8.63s8.82-2.85,8.82-8.63V21.27c-.1-4.31,2-6.47,6.27-6.47h6.66Z"/><path class="cls-1" d="M180.9,39.89c.4-16.76,9.32-25.09,26.66-25.09h1.86V28.32H205c-7.25,0-10.87,3.83-10.87,11.37v27H180.9Z"/><path class="cls-1" d="M224.22,0c4.31,0,6.37,2.16,6.27,6.37v3.82h-13V0Zm0,14.8c4.21,0,6.27,2.06,6.27,6.27V66.65h-13V14.8Z"/><path class="cls-1" d="M261.56,67.82c-15.68,0-23.72-9-24.11-26.85,0-17.74,7.94-26.66,23.91-26.95,12.55,0,20,5.58,22.25,16.85H269.4A8.49,8.49,0,0,0,261,25.48c-6.86,0-10.29,5.2-10.29,15.49s3.63,15.48,10.88,15.38a10.17,10.17,0,0,0,7.84-3.72,6,6,0,0,1,4.41-1.86h9.8C281.26,61.35,273.61,68.12,261.56,67.82Z"/><path class="cls-1" d="M297.23,0c4.31,0,6.37,2.16,6.27,6.37v3.82h-13V0Zm0,14.8c4.21,0,6.27,2.06,6.27,6.27V66.65h-13V14.8Z"/><path class="cls-1" d="M357.6,41c0,17.83-7.94,26.85-23.62,26.85s-23.52-9-23.52-26.85c0-18,7.84-26.95,23.52-26.95S357.6,22.93,357.6,41Zm-33.91,0c.09,10.09,3.53,15.19,10.19,15.19s10-5.29,10.09-15.58c0-10.1-3.33-15.1-10-15.1C327.12,25.48,323.69,30.68,323.69,41Z"/><path d="M386.51,57.24c5.48,0,8.23-1.57,8.23-4.9,0-2.65-4.51-4.81-13.43-6.37-11.47-2.06-17.35-7.16-17.44-15.29,0-11.18,8.82-16.47,20.67-16.66q10,0,15.88,4.41t6.18,12.64h-8.24c-3-.1-5-1.18-5.78-3.24-.88-2.25-3.53-3.52-7.84-3.52-5.1,0-7.64,1.37-7.64,4s3.33,4.71,10.09,6c8.82,1.77,14.6,4,17.45,6.67a12.87,12.87,0,0,1,3.62,9.21c0,12.74-10,17.45-23.72,17.45-7.25,0-12.74-1.57-16.26-4.61-3.93-2.94-5.88-7.45-5.88-13.43h13.32C376,55.28,380.13,57.24,386.51,57.24Z"/><path d="M460.69,41c0,17.83-7.94,26.85-23.62,26.85s-23.52-9-23.52-26.85c0-18,7.84-26.95,23.52-26.95S460.69,22.93,460.69,41Zm-33.91,0c.1,10.09,3.53,15.19,10.19,15.19s10-5.29,10.1-15.58c0-10.1-3.33-15.1-10-15.1C430.21,25.48,426.78,30.68,426.78,41Z"/><path d="M510.57,46c0,8.91-2.25,14.79-6.86,17.64a30.25,30.25,0,0,1-15.29,4,26.17,26.17,0,0,1-14.7-4.42C469.21,60.37,467,54.69,467,46V14.8h13V48.61c0,5.78,2.94,8.63,8.82,8.63s8.83-2.85,8.83-8.63V21.27c-.1-4.31,2-6.47,6.27-6.47h6.66Z"/><path d="M517.82,19V14.8h42.44V25.87l-27.54,29.5H561V66.65H516.25V56.35L544,25.68H524.48A6.49,6.49,0,0,1,517.82,19Z"/><path d="M581.32,28.32h-13c1.57-9.6,8.33-14.3,20.29-14.3,14.31,0,21.56,4.7,21.85,14.3V46c0,14.3-8.62,20.68-22.64,21.66-12.44,1-21.07-4.81-21.07-16.27C567,38.91,576,35.58,589.16,34.3c5.59-.68,8.43-2.35,8.43-5.19-.29-2.94-3-4.41-8.43-4.41C584.56,24.7,582,25.87,581.32,28.32Zm16.47,17.06v-4.8a56.57,56.57,0,0,1-10.39,3.13c-5.19,1-7.84,3.43-7.84,7.25.29,4.12,2.45,6.08,6.57,6.08C593.38,57,597.79,52.73,597.79,45.38Z"/></g></g></svg>