<svg xmlns="http://www.w3.org/2000/svg" viewBox="0 0 127.21 53.61">
<defs>
<style>.cls-1{fill:#8924ff;}</style>
</defs>
<path class="cls-1" d="M13.23,19.5V52.63H0V22.15C0,7.35,7.45,0,22.25,0,28.91,0,34,1.47,37.73,4.41,41.46,1.57,46.55.2,53.22.2c14.8,0,22.15,7.35,22,22.15V52.83H68.51c-4.32-.3-6.47-2.36-6.47-6.47V19.7c-.3-5.39-3.24-8-9-8s-8.72,2.65-8.82,8V52.63H31.07V19.5c-.3-5.39-3.24-8-9-8S13.33,14.11,13.23,19.5Z"/>
<path d="M105.45,43.22c5.49,0,8.23-1.57,8.23-4.9,0-2.65-4.51-4.8-13.43-6.37C88.79,29.89,82.91,24.8,82.81,16.66,82.81,5.49,91.63.2,103.49,0q10,0,15.88,4.41Q125.1,9,125.54,17.05h-8.23c-3-.09-5-1.17-5.79-3.23-.88-2.26-3.52-3.53-7.84-3.53-5.09,0-7.64,1.37-7.64,4s3.33,4.7,10.09,6c8.83,1.76,14.61,4,17.45,6.66a12.89,12.89,0,0,1,3.63,9.21c0,12.75-10,17.45-23.72,17.45C96.24,53.61,90.75,52,87.22,49c-3.92-2.94-5.88-7.44-5.88-13.42H94.67C95,41.26,99.08,43.22,105.45,43.22Z"/>
</svg>